<svg width="80" height="80" viewBox="0 0 80 80" fill="none" xmlns="http://www.w3.org/2000/svg">
<g filter="url(#filter0_d_195_14)">
<circle cx="40" cy="40" r="20" fill="white"/>
</g>
<path d="M32.1731 36.6384C32.41 36.4016 32.7259 36.2605 33.0603 36.2422C33.3948 36.2239 33.7242 36.3297 33.9855 36.5392L38.3967 40.0824C38.8472 40.5327 39.4581 40.7857 40.0951 40.7857C40.7321 40.7857 41.343 40.5327 41.7935 40.0824L46.2047 36.5392C46.4815 36.3238 46.8308 36.2236 47.1797 36.2596C47.5285 36.2957 47.85 36.4651 48.077 36.7325C48.3039 36.9999 48.4187 37.3446 48.3975 37.6947C48.3763 38.0448 48.2207 38.3732 47.9631 38.6112L41.0019 44.8532C40.7525 45.0765 40.4295 45.2 40.0947 45.2C39.7599 45.2 39.4369 45.0765 39.1875 44.8532L32.2271 38.6112C32.0895 38.488 31.9786 38.3379 31.9009 38.1703C31.8233 38.0027 31.7807 37.8211 31.7756 37.6364C31.7705 37.4518 31.8032 37.2681 31.8715 37.0965C31.9399 36.9249 32.0425 36.769 32.1731 36.6384Z" fill="#28231E"/>
<defs>
<filter id="filter0_d_195_14" x="0" y="0" width="80" height="80" filterUnits="userSpaceOnUse" color-interpolation-filters="sRGB">
<feFlood flood-opacity="0" result="BackgroundImageFix"/>
<feColorMatrix in="SourceAlpha" type="matrix" values="0 0 0 0 0 0 0 0 0 0 0 0 0 0 0 0 0 0 127 0" result="hardAlpha"/>
<feOffset/>
<feGaussianBlur stdDeviation="10"/>
<feComposite in2="hardAlpha" operator="out"/>
<feColorMatrix type="matrix" values="0 0 0 0 0 0 0 0 0 0 0 0 0 0 0 0 0 0 0.25 0"/>
<feBlend mode="normal" in2="BackgroundImageFix" result="effect1_dropShadow_195_14"/>
<feBlend mode="normal" in="SourceGraphic" in2="effect1_dropShadow_195_14" result="shape"/>
</filter>
</defs>
</svg>
