<svg width="700" height="100" viewBox="0 0 700 100" fill="none" xmlns="http://www.w3.org/2000/svg">
<g clip-path="url(#clip0_647_103)">
<rect width="700" height="100" rx="10" fill="#DA2723"/>
<g opacity="0.2" clip-path="url(#clip1_647_103)">
<path d="M429.724 53.0573L419.064 57.2091C416.93 54.0357 414.167 50.8733 411.073 48.1287C410.62 47.7268 409.927 47.7686 409.525 48.2213C409.124 48.6741 409.165 49.3669 409.618 49.7687C414.427 54.0344 418.531 59.5511 420.328 64.1662C424.32 74.4155 419.229 86.0016 408.98 89.9934C403.825 92.001 398.012 91.7673 393.032 89.3523C392.487 89.0881 391.831 89.3155 391.567 89.8603C391.303 90.4049 391.531 91.0607 392.075 91.3246C394.298 92.4026 396.671 93.0882 399.085 93.3787L402.022 100.92L399.544 106.559C399.317 107.076 399.532 107.7 400.03 107.966C400.585 108.263 401.297 108.018 401.551 107.441L403.147 103.809L403.884 105.701C404.103 106.265 404.739 106.544 405.303 106.324C405.867 106.104 406.146 105.469 405.927 104.905L405.19 103.013L408.822 104.609C409.399 104.863 410.09 104.562 410.298 103.967C410.484 103.434 410.22 102.829 409.704 102.602L404.065 100.125L401.499 93.5367C404.305 93.5681 407.119 93.0706 409.775 92.0359C412.494 90.9773 414.884 89.4363 416.889 87.5502L419.452 94.1316L416.975 99.7706C416.748 100.287 416.962 100.911 417.46 101.177C418.016 101.475 418.728 101.23 418.981 100.652L420.578 97.0203L421.314 98.9121C421.534 99.4761 422.169 99.7554 422.734 99.5357C423.298 99.316 423.577 98.6807 423.357 98.1166L422.62 96.2246L426.253 97.8207C426.83 98.0743 427.52 97.7732 427.728 97.1784C427.915 96.6454 427.651 96.0407 427.134 95.8138L421.495 93.3361L418.559 85.7974C421.948 81.8243 423.861 76.7326 423.881 71.4662C423.883 71.4652 423.885 71.4645 423.887 71.4636C430.652 68.4125 433.839 60.6015 431.144 53.681C430.923 53.1167 430.288 52.8376 429.724 53.0573ZM429.881 58.0145L427.064 59.1119C426.5 59.3316 426.22 59.967 426.44 60.5311C426.66 61.0952 427.295 61.3743 427.859 61.1546L429.786 60.4041C429.712 60.9257 429.602 61.4402 429.46 61.9446C429.448 61.9486 429.437 61.9515 429.426 61.9559L426.158 63.2288C425.594 63.4484 425.314 64.0838 425.534 64.6479C425.754 65.212 426.389 65.4911 426.953 65.2714L428.246 64.7678C427.194 66.5378 425.669 68.0439 423.758 69.079C423.557 67.1655 423.102 65.2479 422.371 63.3707C421.832 61.9869 421.117 60.5491 420.258 59.0967L429.451 55.516C429.689 56.344 429.829 57.1811 429.881 58.0145Z" fill="black"/>
<path d="M405.555 43.9663C400.144 40.5842 395.116 39.4422 390.928 40.624L390.033 38.3259C389.813 37.7619 389.178 37.4826 388.614 37.7023C388.05 37.922 387.77 38.5573 387.99 39.1214L388.885 41.4186C388.714 41.5052 388.545 41.5969 388.377 41.6923L385.283 39.5233C384.787 39.1759 384.104 39.296 383.756 39.7916C383.409 40.2872 383.529 40.9708 384.025 41.3182L386.474 43.0354C386.279 43.2024 386.085 43.375 385.896 43.556L382.47 42.8021C381.879 42.6721 381.294 43.0457 381.164 43.6369C381.034 44.2279 381.408 44.8127 381.999 44.9427L384.235 45.4349C381.968 48.4428 380.337 52.6585 379.483 57.8602C378.687 62.7091 378.682 67.9967 379.387 72.6621L368.718 76.8173C368.154 77.0369 367.875 77.6723 368.094 78.2364C369.417 81.6323 371.969 84.339 375.281 85.8573C378.507 87.3361 382.114 87.5316 385.469 86.422C386.022 87.022 386.606 87.5926 387.222 88.1268C387.704 88.5443 388.46 88.4535 388.831 87.9362C389.157 87.4825 389.08 86.8358 388.658 86.4703C386.231 84.3659 384.327 81.66 383.152 78.6449C379.603 69.5316 380.383 52.8839 386.813 45.7701C387.057 45.6565 387.255 45.4553 387.362 45.1967C388.346 44.2382 389.451 43.4924 390.682 43.0131C395.373 41.186 400.727 43.5338 404.393 45.8251C404.906 46.1459 405.582 45.99 405.903 45.4766C406.224 44.9634 406.068 44.2872 405.555 43.9663ZM377.702 84.453L379.02 83.9397C379.584 83.7201 379.863 83.0847 379.643 82.5206C379.424 81.9565 378.788 81.6773 378.224 81.8971L374.956 83.1699C374.938 83.1767 374.922 83.1851 374.905 83.1926C374.46 82.917 374.033 82.6111 373.626 82.2763L375.568 81.5201C376.132 81.3004 376.411 80.6651 376.192 80.101C375.972 79.537 375.337 79.2577 374.772 79.4774L371.949 80.5771C371.427 79.9275 370.966 79.2158 370.581 78.4438L379.782 74.8603C380.129 76.5154 380.573 78.0611 381.11 79.4403C381.825 81.2768 382.786 83.0092 383.952 84.5859C381.83 85.123 379.68 85.0471 377.702 84.453Z" fill="black"/>
<path d="M404.301 55.4309C402.536 56.1182 401.66 58.1128 402.347 59.8773C403.034 61.6419 405.029 62.5184 406.794 61.8311C408.558 61.1439 409.435 59.1492 408.747 57.3847C408.06 55.6201 406.066 54.7437 404.301 55.4309ZM405.998 59.7885C405.36 60.0371 404.638 59.7201 404.39 59.0818C404.141 58.4436 404.458 57.7221 405.096 57.4735C405.735 57.2249 406.456 57.5419 406.705 58.1802C406.953 58.8184 406.636 59.54 405.998 59.7885Z" fill="black"/>
<path d="M389.049 61.3708C387.285 62.0581 386.408 64.0527 387.096 65.8173C387.783 67.5819 389.778 68.4583 391.542 67.771C393.307 67.0838 394.183 65.0892 393.496 63.3246C392.809 61.56 390.814 60.6836 389.049 61.3708ZM390.747 65.7285C390.108 65.9771 389.387 65.66 389.138 65.0218C388.89 64.3835 389.207 63.662 389.845 63.4134C390.483 63.1648 391.205 63.4819 391.453 64.1201C391.702 64.7584 391.385 65.4799 390.747 65.7285Z" fill="black"/>
<path d="M403.579 63.2404L394.863 66.6346C393.973 66.9813 393.945 68.2746 394.82 68.6593L400.875 71.3198C401.422 71.56 402.079 71.3039 402.319 70.7573L404.98 64.7025C405.364 63.8269 404.469 62.8936 403.579 63.2404ZM401.908 66.2432L400.753 68.8719L398.124 67.7168L401.908 66.2431L401.908 66.2432Z" fill="black"/>
</g>
<g opacity="0.2" clip-path="url(#clip2_647_103)">
<path d="M301.847 12.9131C297.155 11.6021 291.21 16.0122 286.542 24.1767C283.329 22.3341 279.723 20.8065 276.107 19.7959C271.967 18.6391 268.092 19.0605 264.901 21.013C262.08 22.7404 260.011 25.5347 259.076 28.8797C257.411 34.8394 259.567 42.3558 268.237 44.7786C268.361 44.8134 268.483 44.8549 268.604 44.8961C268.754 44.9465 268.903 44.9967 269.053 45.0385C273.936 46.403 279.292 46.9556 284.053 46.6196C285.831 49.0222 288.423 50.7517 291.304 51.5568C293.178 52.0802 295.168 52.2161 297.126 51.9007C302.052 51.1059 305.718 47.6403 307.184 42.3952C307.219 42.2707 307.26 42.1491 307.301 42.0283C307.352 41.8782 307.402 41.7289 307.444 41.5792C310.766 29.6883 309.284 14.9915 301.847 12.9131ZM269.181 43.1835C269.03 43.1319 268.877 43.0808 268.723 43.0378C261.25 40.9494 259.386 34.4868 260.817 29.3662C261.628 26.4616 263.415 24.0424 265.845 22.5548C268.597 20.8709 271.977 20.5185 275.62 21.5367C279.344 22.5772 282.861 24.1072 285.899 25.8897L286.404 26.195C287.218 26.6871 287.985 27.1932 288.708 27.707C288.838 27.7996 288.965 27.8932 289.092 27.9868C289.257 28.108 289.419 28.2293 289.579 28.351C289.774 28.5002 289.969 28.6486 290.158 28.7998C290.17 28.8098 290.182 28.8198 290.195 28.83C292.614 30.7738 294.428 32.841 295.382 34.8109C295.416 34.8814 295.453 34.9525 295.484 35.0234C295.547 35.1599 295.603 35.2957 295.656 35.4318C295.702 35.5477 295.744 35.6635 295.783 35.7786C295.82 35.8867 295.859 35.9961 295.89 36.1033C295.954 36.3228 296.008 36.5407 296.048 36.7553C296.058 36.8098 296.061 36.8623 296.069 36.9162C296.097 37.0937 296.117 37.2693 296.127 37.4428C296.131 37.5152 296.131 37.5876 296.133 37.6593C296.135 37.8186 296.13 37.9757 296.116 38.1314C296.111 38.1966 296.107 38.2612 296.1 38.3257C296.073 38.5396 296.035 38.7506 295.978 38.956C295.927 39.1397 295.861 39.3195 295.785 39.4972C295.758 39.5618 295.723 39.6233 295.692 39.6869C295.639 39.796 295.586 39.905 295.524 40.0125C295.477 40.0941 295.422 40.1726 295.37 40.2519C295.315 40.3341 295.261 40.4166 295.201 40.4983C295.131 40.5913 295.055 40.6829 294.978 40.7731C294.928 40.8331 294.877 40.892 294.824 40.9512C294.727 41.0565 294.625 41.1596 294.519 41.2613C294.482 41.296 294.445 41.3307 294.408 41.3652C294.276 41.485 294.14 41.603 293.995 41.7172C293.989 41.7212 293.983 41.7252 293.978 41.7303C292.146 43.1637 289.271 44.1496 285.829 44.6114C285.796 44.6162 285.764 44.6213 285.731 44.6252C285.55 44.6489 285.365 44.6675 285.182 44.6886C284.973 44.712 284.765 44.7354 284.552 44.7545C280.038 45.1757 274.714 44.7445 269.54 43.2988C269.42 43.2635 269.301 43.2236 269.181 43.1835ZM305.589 41.4503C305.537 41.6011 305.486 41.7538 305.443 41.9079C304.175 46.4462 301.039 49.4378 296.837 50.116C292.898 50.7503 288.806 49.2812 286.192 46.4019C292.03 45.6197 296.623 43.3571 297.717 39.4411C297.791 39.1757 297.843 38.9085 297.882 38.6398C297.887 38.6101 297.888 38.5795 297.891 38.5495C298.497 33.9763 294.205 28.9757 288.081 25.1051C292.268 17.7667 297.544 13.5874 301.359 14.6534C306.951 16.2162 309.061 29.0639 305.701 41.0911C305.669 41.2118 305.628 41.3308 305.589 41.4503Z" fill="black"/>
<path d="M268.896 23.1177C266.146 24.0956 264.015 26.3273 263.047 29.2407C262.89 29.7149 263.146 30.2264 263.62 30.3833C263.634 30.3881 263.647 30.392 263.662 30.3961C264.124 30.525 264.61 30.2696 264.762 29.8102C265.553 27.4301 267.281 25.6109 269.501 24.821C269.971 24.6539 270.218 24.1373 270.05 23.6663C269.882 23.1961 269.366 22.9515 268.896 23.1177Z" fill="black"/>
<path d="M275.418 23.0341C274.304 22.7227 273.205 22.5657 272.152 22.5679C271.652 22.5682 271.248 22.9741 271.25 23.4728C271.25 23.8868 271.529 24.235 271.91 24.3413C271.988 24.3632 272.071 24.3751 272.154 24.375C273.043 24.3727 273.977 24.508 274.932 24.7749C275.413 24.9094 275.911 24.629 276.046 24.1477C276.18 23.6664 275.9 23.1686 275.418 23.0341Z" fill="black"/>
<path d="M303.086 23.1579C303.548 24.5887 303.796 26.1528 303.823 27.8071C303.829 28.2171 304.107 28.5585 304.483 28.6636C304.565 28.6864 304.651 28.6982 304.74 28.697C305.239 28.689 305.638 28.2779 305.63 27.7792C305.601 25.9451 305.323 24.2025 304.804 22.6014C304.65 22.1265 304.142 21.8646 303.666 22.0205C303.193 22.1735 302.932 22.6825 303.086 23.1579Z" fill="black"/>
<path d="M300.716 16.4052C300.31 16.1199 299.749 16.2165 299.461 16.6213C299.172 17.0275 299.267 17.5908 299.672 17.8805C299.682 17.8877 300.62 18.5714 301.592 20.0317C301.717 20.2196 301.9 20.3459 302.101 20.4021C302.345 20.4702 302.617 20.4364 302.844 20.2842C303.26 20.0073 303.373 19.4466 303.097 19.0316C301.923 17.267 300.765 16.4405 300.716 16.4052Z" fill="black"/>
</g>
<g opacity="0.2" clip-path="url(#clip3_647_103)">
<path d="M581.107 10.4791C576.584 12.2861 574.538 19.3998 575.786 28.7218C572.115 29.2083 568.322 30.1843 564.835 31.5773C560.843 33.1718 558.02 35.8595 556.671 39.3484C555.478 42.4339 555.531 45.9105 556.819 49.1358C559.115 54.8823 565.392 59.5453 573.752 56.2058C573.872 56.1578 573.994 56.1169 574.115 56.0764C574.264 56.0253 574.413 55.9745 574.558 55.9168C579.266 54.036 583.857 51.2231 587.436 48.065C590.307 48.8945 593.418 48.6943 596.196 47.5846C598.002 46.8632 599.666 45.7623 601.03 44.3232C604.461 40.7005 605.27 35.7208 603.25 30.6633C603.202 30.5433 603.161 30.4215 603.12 30.3005C603.069 30.1506 603.018 30.0015 602.961 29.8572C598.38 18.3923 588.279 7.61429 581.107 10.4791ZM573.533 54.3652C573.382 54.4158 573.23 54.4679 573.081 54.5272C565.875 57.4058 560.47 53.4027 558.498 48.4653C557.379 45.6647 557.329 42.658 558.357 40.0003C559.521 36.9915 561.992 34.6592 565.505 33.2558C569.096 31.8216 572.82 30.9014 576.316 30.4732L576.902 30.4092C577.848 30.3059 578.764 30.2424 579.651 30.2113C579.811 30.206 579.968 30.2034 580.126 30.2008C580.33 30.1968 580.533 30.1947 580.734 30.1942C580.98 30.1944 581.225 30.1939 581.466 30.1995C581.482 30.2 581.498 30.2006 581.514 30.2007C584.617 30.2762 587.313 30.8176 589.268 31.8031C589.337 31.8386 589.409 31.873 589.478 31.91C589.61 31.9807 589.737 32.0546 589.862 32.13C589.969 32.1945 590.072 32.2612 590.173 32.3288C590.269 32.392 590.366 32.4553 590.456 32.5216C590.64 32.6575 590.815 32.7975 590.977 32.9441C591.018 32.9812 591.052 33.021 591.092 33.0588C591.221 33.1832 591.344 33.3103 591.457 33.4423C591.504 33.4973 591.549 33.5546 591.593 33.6107C591.692 33.7357 591.783 33.8638 591.867 33.9958C591.903 34.0507 591.939 34.1044 591.972 34.1603C592.08 34.3466 592.179 34.537 592.258 34.735C592.328 34.9121 592.386 35.0946 592.433 35.2819C592.451 35.3499 592.46 35.42 592.474 35.4893C592.498 35.6082 592.523 35.727 592.539 35.85C592.551 35.9435 592.555 36.0391 592.561 36.1338C592.568 36.2325 592.575 36.3308 592.577 36.4324C592.577 36.5488 592.573 36.6673 592.567 36.7856C592.563 36.864 592.558 36.9419 592.552 37.0212C592.539 37.1637 592.521 37.307 592.498 37.4524C592.49 37.5024 592.482 37.5524 592.473 37.6027C592.441 37.7781 592.405 37.9539 592.359 38.133C592.356 38.1397 592.354 38.1464 592.353 38.1536C591.768 40.4047 590.082 42.9342 587.628 45.3908C587.605 45.4148 587.582 45.4384 587.558 45.4616C587.429 45.5899 587.293 45.7172 587.161 45.8452C587.009 45.9903 586.858 46.1354 586.7 46.2803C583.369 49.3558 578.877 52.246 573.888 54.2388C573.772 54.2834 573.653 54.3241 573.533 54.3652ZM601.409 30.881C601.459 31.0321 601.511 31.1845 601.571 31.333C603.319 35.709 602.644 39.9901 599.717 43.0804C596.972 45.9763 592.829 47.2936 589.004 46.593C593.167 42.4269 595.443 37.8402 593.934 34.0643C593.832 33.8084 593.71 33.565 593.579 33.3276C593.564 33.3013 593.546 33.2762 593.531 33.2502C591.236 29.2486 584.789 27.8814 577.573 28.5247C576.443 20.1521 578.098 13.6277 581.776 12.1583C587.169 10.0042 596.647 18.9309 601.279 30.5278C601.327 30.643 601.367 30.7623 601.409 30.881Z" fill="black"/>
<path d="M561.123 38.5949C559.532 41.0415 559.193 44.109 560.193 47.0116C560.356 47.4836 560.87 47.7347 561.342 47.5715C561.356 47.567 561.37 47.5616 561.384 47.5559C561.829 47.3782 562.06 46.8801 561.902 46.4223C561.085 44.051 561.353 41.5567 562.638 39.5809C562.91 39.1628 562.792 38.6026 562.373 38.3302C561.954 38.0586 561.395 38.1777 561.123 38.5949Z" fill="black"/>
<path d="M566.255 34.5681C565.18 34.9972 564.212 35.5398 563.376 36.1812C562.98 36.4846 562.905 37.0526 563.209 37.448C563.461 37.7765 563.894 37.8838 564.26 37.7373C564.336 37.7071 564.409 37.6662 564.475 37.6154C565.18 37.0742 566.004 36.6144 566.925 36.2466C567.389 36.0612 567.615 35.5362 567.429 35.0721C567.244 34.608 566.719 34.3827 566.255 34.5681Z" fill="black"/>
<path d="M588.313 17.8673C589.549 18.7232 590.696 19.8154 591.721 21.1137C591.975 21.4355 592.404 21.5379 592.766 21.3931C592.845 21.3616 592.92 21.3188 592.991 21.2634C593.382 20.9543 593.45 20.3853 593.14 19.9939C592.004 18.5542 590.724 17.3389 589.34 16.3813C588.929 16.0979 588.367 16.198 588.083 16.611C587.8 17.02 587.902 17.5826 588.313 17.8673Z" fill="black"/>
<path d="M582.33 13.9402C581.834 13.9603 581.446 14.3777 581.464 14.8739C581.481 15.3722 581.898 15.7621 582.396 15.7462C582.408 15.7464 583.569 15.7195 585.227 16.2901C585.441 16.3635 585.663 16.3525 585.857 16.2751C586.092 16.1812 586.288 15.9891 586.376 15.7301C586.538 15.2574 586.287 14.7436 585.816 14.5816C583.812 13.8921 582.39 13.9384 582.33 13.9402Z" fill="black"/>
</g>
</g>
<defs>
<clipPath id="clip0_647_103">
<rect width="700" height="100" fill="white"/>
</clipPath>
<clipPath id="clip1_647_103">
<rect width="70" height="70" fill="white" transform="translate(356 50.4043) rotate(-21.2794)"/>
</clipPath>
<clipPath id="clip2_647_103">
<rect width="50" height="50" fill="white" transform="translate(267.651 -1.80566) rotate(15.6125)"/>
</clipPath>
<clipPath id="clip3_647_103">
<rect width="50" height="50" fill="white" transform="translate(545 19.5483) rotate(-21.7751)"/>
</clipPath>
</defs>
</svg>
