<?xml version="1.0" encoding="utf-8"?>
<!-- Generator: Adobe Illustrator 23.1.1, SVG Export Plug-In . SVG Version: 6.00 Build 0)  -->
<svg version="1.1" id="Layer_1" xmlns="http://www.w3.org/2000/svg" xmlns:xlink="http://www.w3.org/1999/xlink" x="0px" y="0px"
	 viewBox="0 0 685 233" style="enable-background:new 0 0 685 233;" xml:space="preserve">
<style type="text/css">
	.st0{opacity:0.5;}
	.st1{fill-rule:evenodd;clip-rule:evenodd;fill:#726C64;}
	.st2{filter:url(#Adobe_OpacityMaskFilter);}
	.st3{fill-rule:evenodd;clip-rule:evenodd;fill:#FFFFFF;}
	.st4{mask:url(#b_1_);fill-rule:evenodd;clip-rule:evenodd;fill:#726C64;}
</style>
<g class="st0">
	<path class="st1" d="M288.8,107.5c-1.6,0-10-5.7-9-8c1-2.3,58.9-1.6,59.2-0.3C339.3,100.5,290.4,107.5,288.8,107.5 M254.9,90.2
		c0-0.7,5.2-2,9.2-4.6c3.9-2.6,6.6-6.4,7.6-6.6c2-0.3,11.9,1,11.2,2.6c-2,5.1,0.7,7.6,5.3,7.6c4.6,0,10.2-4,11.2-4
		c1,0,10.9,3.3,10.9,4.6C310.3,91.2,254.9,91.9,254.9,90.2 M262.4,113.3c-1.6,1-12.9-11.3-12.6-12.6c0.6-2.6,12.2-1.6,13.5-1.6
		c1.3,0,8.4,10.6,7.7,11.6C270.4,111.7,264,112.4,262.4,113.3 M233.4,117.8c-1.6,0-19.7-16.7-18.7-18.3c1-1.6,23.5-0.3,24.1,1
		c0.6,1.3-1.6,3.5-1.6,4.8c0,1.3,10.3,8.7,9.3,10.6C245.6,117.8,235,117.8,233.4,117.8 M208.3,123c-2.3,0-5.8-3.2-11.6-7.1
		c-5.8-3.9-20-15.8-20-17.4c0-2.3,16.1,0.3,17.7,0.3c1.6,0,5.2,4.4,8.7,7.7c7.1,6.8,20.6,11.3,20,13.2
		C222.4,121.7,210.5,123,208.3,123 M189.2,126.4c-4.2,1.2-17.4-11.4-16.5-13.1C172.7,113.2,193.4,125.1,189.2,126.4 M165.8,85.2
		c-1.6-1-0.7-12.9,1.3-21.1s19.1-7.6,19.1-3.6C186.3,64.5,169.1,87.2,165.8,85.2 M206.7,63.5c0,2-16.8,24.4-18.8,26.1
		c-2,1.6-9.4,2.3-9.6,0c-0.3-3.6,19.8-24.1,22.1-26.4C202.8,60.8,206.7,61.5,206.7,63.5 M219.6,66.4c2-0.7,11.2,1,11.2,3
		c0,2-15.2,19.1-16.5,20.8c-1.3,1.7-15.3,1.7-15.5-0.7C198.5,85.9,217.6,67.1,219.6,66.4 M246.6,73.4c1.3-1.3,8.9,0,9.6,1.6
		c0.7,1.6-13.8,14.5-16.2,15.8c-2.3,1.3-13.9,1.8-13.9-0.3C226.2,87.5,245.3,74.7,246.6,73.4 M387.1,99.4c0.7-3.6-19.9-5-43.9-10.6
		c-22.8-5.3-92-24.1-111.4-30.3c-19.5-6.3-51.4-12.9-61-12.9c-9.6,0-15.5,11.5-16.5,23.1c-1,11.5-1.6,19.1-7.9,20.1
		c-4.6,0.7-37.8-0.5-58.4-1.7c-7.5-0.4-13.9-5-15.8-3.6c-2.1,1.6-8.9,11.9,5.9,13.8c14.8,2,74.2-1.7,74.8,0
		c0.7,1.6,13.1,34.2,24.4,37.3c19.5,5.3,78.1-12.9,95-15.5c23.7-3.6,88.4-15.8,96.9-15.5C377.9,104,386.4,103,387.1,99.4 M38.7,80.6
		c-4.4,0-8,3.6-8,8s3.6,8,8,8s8-3.6,8-8S43.1,80.6,38.7,80.6L38.7,80.6 M297.4,36.7c4.4,0,8-3.6,8-8s-3.6-8-8-8s-8,3.6-8,8
		S293,36.7,297.4,36.7 M268.1,36.7c4.4,0,8-3.6,8-8s-3.6-8-8-8s-8,3.6-8,8S263.6,36.7,268.1,36.7L268.1,36.7 M440.1,101.4
		c0,4.4,3.6,8,8,8c4.4,0,8-3.6,8-8c0,0,0,0,0,0c0-4.4-3.6-8-8-8C443.6,93.4,440.1,97,440.1,101.4 M315.6,176.7
		c-3.9,0-7.1,3.2-7.1,7.1c0,3.9,3.2,7.1,7.1,7.1c3.9,0,7.1-3.2,7.1-7.1C322.7,179.9,319.5,176.7,315.6,176.7 M292.2,175.8
		c-4.4,0-8,3.6-8,8c0,4.4,3.6,8,8,8s8-3.6,8-8C300.2,179.4,296.7,175.8,292.2,175.8 M411.7,101.4c0,3.9,3.2,7,7.1,6.9
		c3.8,0,6.9-3.1,6.9-6.9c0-3.9-3.1-7.1-6.9-7.1c-3.9,0-7.1,3.1-7.1,6.9C411.7,101.3,411.7,101.3,411.7,101.4"/>
	<g transform="translate(0 79.691)">
		<defs>
			<filter id="Adobe_OpacityMaskFilter" filterUnits="userSpaceOnUse" x="0" y="0.9" width="16" height="16">
				<feColorMatrix  type="matrix" values="1 0 0 0 0  0 1 0 0 0  0 0 1 0 0  0 0 0 1 0"/>
			</filter>
		</defs>
		<mask maskUnits="userSpaceOnUse" x="0" y="0.9" width="16" height="16" id="b_1_">
			<g class="st2">
				<path id="a_1_" class="st3" d="M0,16.9v-16h16v16H0z"/>
			</g>
		</mask>
		<path class="st4" d="M8,0.9c-4.4,0-8,3.6-8,8s3.6,8,8,8s8-3.6,8-8S12.4,0.9,8,0.9L8,0.9"/>
	</g>
	<path class="st1" d="M408.7,12.5c4.5-4.5,20.1-3.1,20.1-1.2S416.3,24.8,414,24.8C411.4,24.8,404.2,17,408.7,12.5 M452.1,11.9
		c0.6,1.2-16,16.8-17.2,18.4s-11.6,1.7-12.3-0.2c-0.4-1.2,19.2-17.4,20.7-18.8C444.7,9.8,451.5,10.6,452.1,11.9 M485.7,16.6
		c0,1.4-14.5,13.9-16.4,14.9c-1.8,1-20.2,0.4-20.7-1.2c-0.6-2.2,17.2-16,19-16.8C469.5,12.7,485.7,15.1,485.7,16.6 M502.2,17.6
		c1.8-0.6,7.8,0.4,8.8,1.2c1,0.8-11.1,11.9-11.7,12.9c-0.6,1-13.2,1-13.7-0.4C485.3,30.1,500.4,18.2,502.2,17.6 M516.2,52.8
		c0,1-15.4,3.7-17,3.7s-17.6-15.5-16.8-17.2c0.4-0.8,18.4-0.6,19.8,0C503.7,39.9,516.2,51.8,516.2,52.8 M527.6,21.5
		c2.5,0,23.7,1.4,25,2.3c1.2,0.8-2,6.5-4.3,8c-2.2,1.4-35.1,0.9-35.4-0.4C512.5,29.7,525.2,21.5,527.6,21.5 M565.1,26.2
		c1-0.8,39.9,4.5,39.9,5.7c0,1.2-44.1,0.4-44.2-0.6C560.6,29.9,564.1,27,565.1,26.2 M561.6,45.8c-2.5,0.4-9.4-5.6-9.4-6.5
		c0-1.6,42.2-0.6,42.4,1S564.1,45.4,561.6,45.8 M531.5,49.9c-1.4,0-12.9-9.3-12.3-10.6c0.6-1.2,14.9-0.4,16.6-0.2
		c1.6,0.2,6.3,7,6.3,8C542.2,48.1,532.9,49.9,531.5,49.9 M442.5,68.8c-2.9,0-27-13.1-28-14.5c-1-1.4,3.3-12.5,4.7-14.9
		c1.4-2.5,5.1-1.2,6.8-1c1.2,0.1,6.4,6.5,12.9,11.7c6.8,5.5,13.8,8.8,14.6,9.2c4.1,1.9,7.9,0.2,6.6-4.3
		c-0.3-1.2-19.4-14.7-19.1-15.9c0.4-1.8,23.9-0.4,25.4,0.2c0.6,0.3,3.6,5,8.4,9.2c5.8,5,13.4,9.5,13.1,10.4
		C487.1,60.4,445.3,68.8,442.5,68.8 M415.7,71.8c-4.5-1-5.8-6-5.5-6.5c0.6-1.4,1.6,0,6.1,1.6c4.5,1.6,9.4,3.9,9,4.7
		C424.9,72.5,420.2,72.9,415.7,71.8 M333,39.3c3.3,0,69.5-4.7,70.8-1.2c2.5,6.5-6.1,22.9-5.3,29.1c0.8,6.1,6.1,14.3,17.6,13.9
		c11.5-0.4,98.2-20.1,118.7-23.7s77-12.3,85.6-14.7c8.6-2.5,56.2-3.7,56.5-7.4c0.4-5.7-11.5-4.9-28.7-6.5
		C631,27,523.3,12.3,504.9,9.4C486.5,6.6,428.4,0,419.4,0c-9,0-23.7,0.4-23.7,11.5c0,11.1,3.3,15.1,2.5,18
		c-0.8,2.9-40.9-0.4-50.8-2.5c-9.8-2-22.6-7-25-2.5C319.1,30.7,329.7,39.3,333,39.3 M549.7,178.8c0,0,25.4-7.9,27.4-6.9
		s4.1,6.2,6.4,6.2s10-3.3,12.1-3.3c2,0,21.5,4.1,21.3,5.9C616.7,182.4,550.2,180.1,549.7,178.8 M572.8,198.3
		c-2.3,0-10.5-11.3-10.5-11.3c1.3-1.5,14.1-0.8,15.7-0.5c1.5,0.3,8.2,9.8,8,11C585.6,198.8,575.1,198.3,572.8,198.3 M555.1,204
		c-3.3,0-24.4-15.7-23.1-16.7c2.3-1.8,15.1-0.3,16.2,0.3c1,0.5,12.2,11.8,12.6,14.1S558.4,204,555.1,204 M529.7,208.3
		c-9.5-0.5-29.3-19.3-29-20c0.8-1.8,15.7-1.3,16.9-0.3c0.6,0.5,4,5,8.7,9c4.7,4,10.8,7.6,10.8,8.2
		C537.1,206.5,539.2,208.8,529.7,208.3 M502.5,214.7c-3.6,1.3-31.8,5.1-35.9,3.8c-38-11.9-41.3-28.2-40.3-29.8c1-1.5,18.7,0,20,0
		s4.1,3.6,8.5,5.1c4.4,1.5,36.4,18.7,38.7,18.7c2.3,0,8.5-3.1,5.9-4.9c-2.6-1.8-31-18.6-30.5-19.2c0.8-1,14.4-0.3,15.4,0
		c1,0.3,2.1,4.1,6.2,8c4.1,3.8,21.5,11,21.8,14.4C512.5,214.2,506.1,213.5,502.5,214.7 M453.2,222.7c-1,1.5-20,1.5-23.6-0.5
		c-3.6-2.1-4.9-10-3.6-10c0,0,6.2,3.6,9.5,4.6C438.9,217.8,454.3,221.1,453.2,222.7 M419.4,180.1c-2.3,0-6.4-3.6-5.9-10.5
		c0.5-6.9,22.8-13.6,24.1-12.3C438.9,158.5,421.2,180.1,419.4,180.1 M464.3,154.2c3.8,1.3-16.7,23.1-18.5,25.7
		c-1.8,2.6-14.5,2.3-13.8-0.3C434,172.1,460.4,152.9,464.3,154.2 M481.5,156c1.5-1.3,9,0.5,9.5,1.8c0.5,1.3-17.2,20.5-18,22.6
		c-0.8,2.1-16.4,2.2-16.2,0.5C457.1,179.3,479.9,157.3,481.5,156 M502,161.9c3.1-2.3,8.7-2.8,9.8-1.8c1,1-14.9,20-16.2,21
		c-1.3,1-11,1.5-11-0.3C484.5,178.8,498.9,164.2,502,161.9 M524.8,163.2c1.8-0.3,12.8,1.5,13.1,3.1c0.3,1.5-8.5,11.5-8.7,13.3
		c-0.3,1.8-20.7,1.5-20.3,0C509.4,177.8,523,163.4,524.8,163.2 M637.4,177c-14.4-2.3-109.3-20.5-123.4-24.4s-46.4-8.5-58.2-8.5
		c-11.8,0-47.6,4.6-52.8,20.3c-1.5,4.6,2.3,14.9,1.8,16.4c-0.5,1.5-38.2,0-44.1-0.5c-5.9-0.5-14.9-4.1-17.7-4.1s-7.7,1.3-8,6.4
		c-0.2,3.6,5.1,8.7,10.8,8.7c5.6,0,33.9-2.3,40-2.3c6.2,0,24.9-0.5,26.7,1.3c1.8,1.8-1.5,17.2-1,21.6c0.5,4.4,3.1,20.8,28.2,20.8
		c25.1,0,95.9-18.2,107-20c11-1.8,54.4-9,75.2-12.3c20.8-3.3,46.4-7.4,51-7.4s12.1-0.3,12.1-4.9S651.8,179.3,637.4,177"/>
</g>
</svg>
